PathFileType	4	(X/Y/Z)	/Users/itak/Documents/Research/Walk-IL/dataset/trc/00180_00008.trc
DataRate	CameraRate	NumFrames	NumMarkers	Units	OrigDataRate	OrigDataStartFrame	OrigNumFrames
100.000000	100.000000	4	53	mm	100.000000	580	663
Frame#	Time	RPSI			LPSI			L3			STRN			T10			C7			CLAV			RBAK			LBAK			LSHO			LUPA			LAEL			LAOL			LWTS			LWPS			LFRA			LIFD			LHPS			LHTS			RSHO			RUPA			RAEL			RAOL			RWTS			RWPS			RFRA			RIFD			RHTS			RHPS			RBHD			LFHD			RFHD			LBHD			LHIP			RHIP			RASI			LASI			LKNE			LTHI			LANK			LTIP			LTOE			LMT1			LMT5			LHEE			RKNE			RTHI			RANK			RTIP			RTOE			RMT1			RMT5			RHEE			
		X1	Y1	Z1	X2	Y2	Z2	X3	Y3	Z3	X4	Y4	Z4	X5	Y5	Z5	X6	Y6	Z6	X7	Y7	Z7	X8	Y8	Z8	X9	Y9	Z9	X10	Y10	Z10	X11	Y11	Z11	X12	Y12	Z12	X13	Y13	Z13	X14	Y14	Z14	X15	Y15	Z15	X16	Y16	Z16	X17	Y17	Z17	X18	Y18	Z18	X19	Y19	Z19	X20	Y20	Z20	X21	Y21	Z21	X22	Y22	Z22	X23	Y23	Z23	X24	Y24	Z24	X25	Y25	Z25	X26	Y26	Z26	X27	Y27	Z27	X28	Y28	Z28	X29	Y29	Z29	X30	Y30	Z30	X31	Y31	Z31	X32	Y32	Z32	X33	Y33	Z33	X34	Y34	Z34	X35	Y35	Z35	X36	Y36	Z36	X37	Y37	Z37	X38	Y38	Z38	X39	Y39	Z39	X40	Y40	Z40	X41	Y41	Z41	X42	Y42	Z42	X43	Y43	Z43	X44	Y44	Z44	X45	Y45	Z45	X46	Y46	Z46	X47	Y47	Z47	X48	Y48	Z48	X49	Y49	Z49	X50	Y50	Z50	X51	Y51	Z51	X52	Y52	Z52	X53	Y53	Z53	

581	5.8	-442.1923217773438	1072.185180664062	1091.218627929688	-412.0162658691406	1072.016723632812	970.2059936523438	-428	1108.44921875	1033.85107421875	-176.341796875	1325.343627929688	1089.272094726562	-467.7540893554688	1266.202880859375	1017.51416015625	-403.2344360351562	1536.255126953125	1015.795593261719	-204.7359771728516	1437.40087890625	1070.527465820312	-492.3514099121094	1364.097900390625	1110.99658203125	-384.7313537597656	1511.571533203125	917.3963012695312	-290.3486328125	1499.4345703125	861.1153564453125	-307.399658203125	1371.9453125	777.3151245117188	-294.1900939941406	1158.657958984375	745.0926513671875	-352.5603332519531	1137.107788085938	807.4779052734375	-176.187255859375	932.0167846679688	783.5405883789062	-248.74658203125	907.2809448242188	729.7437133789062	-271.7989501953125	1049.116821289062	727.7157592773438	-150.8560333251953	748.2144165039062	797.7162475585938	-223.2553405761719	839.4271240234375	733.87451171875	-156.1405639648438	855.3359375	760.0407104492188	-384.4005432128906	1522.478637695312	1203.817504882812	-421.4809265136719	1462.500854492188	1268.054565429688	-459.7716064453125	1185.876586914062	1355.763793945312	-435.4631958007812	1163.287719726562	1263.52587890625	-273.41015625	1002.967956542969	1414.5927734375	-351.6913452148438	966.7926025390625	1435.352905273438	-428.1277160644531	1120.199829101562	1391.66015625	-200.4109039306641	828.4082641601562	1428.286254882812	-228.5035858154297	922.7193603515625	1447.167724609375	-303.5804748535156	897.0634155273438	1454.836791992188	-318.3125	1714.543579101562	1105.593872070312	-141.5933685302734	1710.449584960938	979.6619262695312	-144.2262725830078	1720.27685546875	1108.502319335938	-321.0838928222656	1713.40478515625	968.3133544921875	-283.8590393066406	1014.003051757812	875.3553466796875	-318.4301147460938	1029.535034179688	1248.066284179688	-229.0042114257812	1059.872802734375	1212.907348632812	-176.34912109375	1055.630737304688	960.1071166992188	-191.7999725341797	510.5648193359375	941.0504150390625	-207.1453704833984	656.1924438476562	908.2200317382812	-362.8450317382812	60.91311264038086	976.9193115234375	-279.8162536621094	288.567138671875	945.2701416015625	-148.1424255371094	72.45519256591797	980.1934814453125	-189.4763641357422	62.06138229370117	1031.848510742188	-259.1986389160156	56.74665832519531	929.9571533203125	-407.156982421875	60.87553787231445	1050.302978515625	-271.64208984375	529.2919311523438	1228.814453125	-254.3790588378906	800.6171875	1263.817504882812	-382.6496276855469	49.91394424438477	1204.376708984375	-260.1160888671875	405.3618774414062	1215.9033203125	-162.1609039306641	45.85070037841797	1245.482788085938	-198.0692443847656	46.88435745239258	1183.79541015625	-292.4421997070312	41.0136604309082	1273.547973632812	-411.0094909667969	49.47108840942383	1125.338256835938	
582	5.81	-438.0651550292969	1072.33203125	1093.796264648438	-408.8062744140625	1072.046142578125	972.6085815429688	-424.2957153320312	1108.505126953125	1036.331909179688	-172.3741455078125	1325.48388671875	1089.880981445312	-464.2297973632812	1266.135498046875	1020.27783203125	-399.9680786132812	1536.231567382812	1018.047241210938	-201.0241088867188	1437.50732421875	1071.377563476562	-488.2482604980469	1364.0029296875	1113.95751953125	-382.2080993652344	1511.521118164062	919.4942626953125	-288.1306457519531	1499.3701171875	862.4886474609375	-305.6360168457031	1371.378540039062	779.433837890625	-292.0486450195312	1157.8671875	748.51611328125	-349.6311645507812	1136.396850585938	811.7522583007812	-172.1419830322266	932.3435668945312	787.3253784179688	-245.0848999023438	906.65869140625	734.6226806640625	-269.18896484375	1048.29736328125	731.730712890625	-145.1644287109375	748.896240234375	802.6322631835938	-219.0235137939453	839.0546264648438	738.977294921875	-151.7761840820312	855.6596069335938	764.2201538085938	-379.7814636230469	1522.411499023438	1205.956298828125	-416.3069458007812	1462.402465820312	1270.487548828125	-453.1661071777344	1185.656860351562	1358.809448242188	-429.3082580566406	1163.092407226562	1266.421997070312	-264.7124633789062	1004.613220214844	1416.646606445312	-342.4215087890625	967.4824829101562	1437.702514648438	-420.7279052734375	1120.184326171875	1394.5703125	-189.5008392333984	831.0003662109375	1429.939208984375	-218.7030944824219	924.9347534179688	1449.0263671875	-293.3782653808594	898.330078125	1456.9560546875	-314.3936462402344	1714.642456054688	1107.4296875	-138.8176574707031	1710.638671875	979.92333984375	-140.3068389892578	1720.396728515625	1108.800170898438	-318.4051513671875	1713.5947265625	970.2496948242188	-281.3533325195312	1013.677307128906	876.8970336914062	-313.0659484863281	1029.828735351562	1249.780151367188	-223.96240234375	1059.99267578125	1213.8720703125	-173.1979064941406	1055.476928710938	960.6702880859375	-191.2938079833984	510.5251770019531	944.1455688476562	-206.4422912597656	655.6416015625	910.229736328125	-350.4278869628906	56.9870719909668	981.9717407226562	-273.6563720703125	286.9213562011719	949.260009765625	-136.0875091552734	72.69290924072266	984.793701171875	-177.0070953369141	61.77431106567383	1036.65087890625	-246.8563842773438	54.32229232788086	934.7752685546875	-394.4962158203125	56.66501998901367	1055.488647460938	-269.4184875488281	529.3165283203125	1229.686889648438	-250.0625915527344	800.5693969726562	1264.98291015625	-382.4844360351562	50.35190582275391	1204.7548828125	-258.5436706542969	405.3855895996094	1216.531494140625	-162.2000885009766	45.81834030151367	1245.486938476562	-198.2665252685547	46.63024520874023	1183.769775390625	-292.3179321289062	41.11104202270508	1273.6357421875	-411.03076171875	50.05493927001953	1125.785400390625	
583	5.82	-434.0401306152344	1072.391235351562	1096.204467773438	-405.675537109375	1071.95654296875	974.8496704101562	-420.6930541992188	1108.463989257812	1038.604370117188	-168.4902648925781	1325.511108398438	1090.349853515625	-460.7594909667969	1265.983764648438	1022.792785644531	-396.7286071777344	1536.117065429688	1020.096069335938	-197.3751525878906	1437.5087890625	1072.092407226562	-484.2379760742188	1363.812377929688	1116.661010742188	-379.667236328125	1511.38720703125	921.38232421875	-285.8833618164062	1499.207275390625	863.7053833007812	-303.7720336914062	1370.698974609375	781.4169311523438	-289.7623596191406	1156.942260742188	751.8984375	-346.63671875	1135.6123046875	815.9147338867188	-168.1323089599609	932.4765014648438	791.2060546875	-241.4207153320312	905.8973388671875	739.5425415039062	-266.4737243652344	1047.337524414062	735.7593383789062	-139.7578125	749.3522338867188	807.7340087890625	-214.8760528564453	838.5185546875	744.1658935546875	-147.4969329833984	855.7471923828125	768.5497436523438	-375.2708435058594	1522.23193359375	1207.893920898438	-411.2649536132812	1462.189331054688	1272.6953125	-446.7842712402344	1185.315185546875	1361.531005859375	-423.3512573242188	1162.793212890625	1269.016967773438	-256.3909301757812	1005.992797851562	1418.325439453125	-333.5466613769531	967.9752807617188	1439.665771484375	-413.5998840332031	1120.019897460938	1397.135620117188	-179.1301116943359	833.26904296875	1431.075927734375	-209.3486328125	926.8325805664062	1450.441040039062	-283.6134033203125	899.3419189453125	1458.641235351562	-310.6232299804688	1714.630981445312	1109.124877929688	-136.1373901367188	1710.797241210938	980.1348876953125	-136.5529174804688	1720.4775390625	1109.0390625	-315.7994995117188	1713.6640625	972.0430297851562	-278.9137268066406	1013.165344238281	878.3526611328125	-307.8287048339844	1030.087158203125	1251.350219726562	-219.0186004638672	1060.07080078125	1214.689453125	-170.1108551025391	1055.183349609375	961.0963134765625	-190.7693328857422	510.4061279296875	947.111572265625	-205.8100280761719	655.0029296875	912.1956787109375	-338.9629211425781	53.66313934326172	986.2218017578125	-267.8318176269531	285.5191040039062	952.79052734375	-125.0091171264648	72.40512084960938	989.6820068359375	-165.8622894287109	61.20318603515625	1041.4931640625	-235.2913055419922	52.0859375	939.2879638671875	-383.1956176757812	53.30610656738281	1059.55859375	-266.9987182617188	529.2958984375	1230.592529296875	-245.7715911865234	800.5091552734375	1266.119140625	-382.3401489257812	50.79218292236328	1205.25439453125	-256.7881164550781	405.3489074707031	1217.189453125	-162.2487030029297	45.78994369506836	1245.489379882812	-198.5343475341797	46.32458114624023	1183.743408203125	-292.183349609375	41.20463180541992	1273.775390625	-411.0915222167969	50.63704681396484	1126.3984375	
584	5.83	-430.126953125	1072.352905273438	1098.464721679688	-402.623291015625	1071.741088867188	976.9421997070312	-417.1957397460938	1108.316284179688	1040.68115234375	-164.6869812011719	1325.423950195312	1090.67919921875	-457.354248046875	1265.752807617188	1025.061157226562	-393.514404296875	1535.913696289062	1021.9404296875	-193.7747497558594	1437.404907226562	1072.665649414062	-480.3212890625	1363.53369140625	1119.108276367188	-377.1028442382812	1511.174438476562	923.0607299804688	-283.6111145019531	1498.951049804688	864.7634887695312	-301.8096313476562	1369.920288085938	783.2509155273438	-287.3464660644531	1155.898681640625	755.2131958007812	-343.5939636230469	1134.760009765625	819.9320068359375	-164.1606750488281	932.4365844726562	795.1825561523438	-237.7565155029297	905.0107421875	744.4859008789062	-263.6623229980469	1046.25341796875	739.7741088867188	-134.6092071533203	749.6069946289062	813.0147094726562	-210.8052673339844	837.8363037109375	749.4241943359375	-143.2887573242188	855.6238403320312	773.0275268554688	-370.8611450195312	1521.944091796875	1209.630493164062	-406.341796875	1461.864379882812	1274.681640625	-440.6085205078125	1184.861328125	1363.947265625	-417.5984191894531	1162.392211914062	1271.314575195312	-248.4377136230469	1007.094665527344	1419.62548828125	-325.0693054199219	968.2749633789062	1441.268310546875	-406.7278442382812	1119.714599609375	1399.373046875	-169.3192291259766	835.1902465820312	1431.713012695312	-200.4369354248047	928.3995361328125	1451.413452148438	-274.2998046875	900.0999755859375	1459.915405273438	-306.9981994628906	1714.498291015625	1110.677856445312	-133.5366058349609	1710.925048828125	980.3076171875	-132.9556427001953	1720.511840820312	1109.230712890625	-313.2523193359375	1713.61328125	973.683349609375	-276.538818359375	1012.487487792969	879.7377319335938	-302.7173156738281	1030.292114257812	1252.7900390625	-214.1816253662109	1060.101440429688	1215.376098632812	-167.0854339599609	1054.762817382812	961.4026489257812	-190.1784057617188	510.2123413085938	949.9138793945312	-205.2269439697266	654.301513671875	914.091552734375	-328.5170288085938	50.90287017822266	989.7080078125	-262.2783203125	284.3131713867188	955.8805541992188	-114.8962326049805	71.50953674316406	994.8261108398438	-156.0303649902344	60.29423522949219	1046.374389648438	-224.5572357177734	50.02798080444336	943.5072021484375	-373.2955627441406	50.71672058105469	1062.577270507812	-264.3640747070312	529.2145385742188	1231.510375976562	-241.4827117919922	800.4210205078125	1267.22021484375	-382.2302856445312	51.21773910522461	1205.851318359375	-254.8429260253906	405.2326354980469	1217.857299804688	-162.2998352050781	45.76472854614258	1245.486328125	-198.8401641845703	46.00057220458984	1183.717041015625	-292.0312194824219	41.30094528198242	1273.96044921875	-411.18798828125	51.19963836669922	1127.15478515625	
